<?xml version="1.0" encoding="utf-8"?>
<!-- Generator: Adobe Illustrator 20.1.0, SVG Export Plug-In . SVG Version: 6.00 Build 0)  -->
<svg version="1.1" id="Camada_1" xmlns="http://www.w3.org/2000/svg" xmlns:xlink="http://www.w3.org/1999/xlink" x="0px" y="0px"
	 viewBox="0 0 300.2 253.5" style="enable-background:new 0 0 300.2 253.5;" xml:space="preserve">
<style type="text/css">
	.st0{fill:black;}
</style>
<g>
	<path class="st0" d="M10.1,187.5c2.9,0,5.6-0.9,7.2-1.8l-0.6-3.7c-1.3,0.8-2.8,1.5-4.9,1.5c-2.6,0-4-1.1-4-4.8v-42.3H2.5v43.3
		C2.5,185.5,5.2,187.5,10.1,187.5z"/>
	<path class="st0" d="M36,187.5c5.4,0,10-2.2,12.7-5.2c0.7,3.6,2.7,5.2,6.6,5.2c2.3,0,4.8-0.9,6.4-1.8l-0.5-3.8
		c-1.4,0.9-2.7,1.6-4.1,1.6c-2.4,0-3.3-1.7-3.3-4.5v-29.2h-5.4v4c-2.7-2.9-7.6-4.7-12.1-4.7c-11.3,0-18.1,7.5-18.1,19.4
		C18.2,180.4,25.2,187.5,36,187.5z M37.5,153.2c4.7,0,8.7,2.5,10.9,5v20c-2.2,2.5-6.1,5.1-10.9,5.1c-8.5,0-13.9-5.6-13.9-14.9
		C23.6,159,28.9,153.2,37.5,153.2z"/>
	<path class="st0" d="M65.5,136.4v50.4h5.4v-4c2.7,2.7,7,4.8,12.5,4.8c10.7,0,17.7-7.2,17.7-19.3s-7-19.2-17.7-19.2
		c-5.4,0-9.8,2.1-12.5,4.7v-17.3H65.5z M81.9,153.2c8.5,0,13.9,5.7,13.9,15.2c0,9.3-5.4,14.9-13.9,14.9c-4.6,0-8.8-2.3-10.9-4.8
		v-20.5C73,155.6,77.2,153.2,81.9,153.2z"/>
	<path class="st0" d="M38.9,236.1c-2.4,0-3.3-1.7-3.3-4.5v-29.2h-5.4v4c-2.7-2.9-7.6-4.7-12.1-4.7C6.8,201.7,0,209.1,0,221
		c0,12,7,19.1,17.8,19.1c5.4,0,10-2.2,12.7-5.2c0.7,3.6,2.7,5.2,6.6,5.2c2.3,0,4.8-0.9,6.4-1.8l-0.5-3.8
		C41.6,235.4,40.2,236.1,38.9,236.1z M30.2,230.8c-2.2,2.5-6.1,5.1-10.9,5.1c-8.5,0-13.9-5.6-13.9-14.9c0-9.4,5.4-15.2,13.9-15.2
		c4.7,0,8.7,2.5,10.9,5V230.8z"/>
	<path class="st0" d="M83.3,236.1c-2.2,0-3.2-1.1-3.2-3.8v-16c0-9.2-4.6-14.5-13.9-14.5c-6.3,0-10.9,2.4-13.4,6.6v-6h-5.4v37.1h5.4
		v-24.6c1.5-4.8,5.5-8.8,11.6-8.8c7,0,10.4,3.9,10.4,11v16.3c0,4.8,2.2,6.8,6.9,6.8c2.5,0,4.8-0.9,6.4-1.8l-0.6-3.7
		C86,235.4,84.8,236.1,83.3,236.1z"/>
	<path class="st0" d="M127.7,236.1c-2.4,0-3.3-1.7-3.3-4.5v-29.2H119v4c-2.7-2.9-7.6-4.7-12.1-4.7c-11.3,0-18.1,7.5-18.1,19.4
		c0,12,7,19.1,17.8,19.1c5.4,0,10-2.2,12.7-5.2c0.7,3.6,2.7,5.2,6.6,5.2c2.3,0,4.8-0.9,6.4-1.8l-0.5-3.8
		C130.4,235.4,129.1,236.1,127.7,236.1z M119,230.8c-2.2,2.5-6.1,5.1-10.9,5.1c-8.5,0-13.9-5.6-13.9-14.9c0-9.4,5.4-15.2,13.9-15.2
		c4.7,0,8.7,2.5,10.9,5V230.8z"/>
	<path class="st0" d="M150.4,234.6c-1.3,0.8-2.8,1.5-4.9,1.5c-2.6,0-4-1.1-4-4.8V189h-5.4v43.3c0,5.7,2.7,7.8,7.6,7.8
		c2.9,0,5.6-0.9,7.2-1.8L150.4,234.6z"/>
	<path class="st0" d="M203,236c-4.3,0-6.7-2-6.7-6.7v-23.1h15.2v-3.8h-15.2v-9.4h-4.5l-0.6,9.4h-5h-2.5h-3l-12.9,32l-14.2-32h-6
		l17.7,36.8l-1.2,3c-1.9,4.8-4,7.5-8.6,7.5c-3.2,0-5.3-0.8-7.1-1.8l-1,3.6c1.8,1.1,4.7,2.1,8.4,2.1c7.3,0,10.4-4,13.2-10.4
		l15.6-36.9h6.3v23.6c0,7.3,4.3,10.4,10.9,10.4c4.7,0,8.4-1.3,11.4-3.2l-1.6-3.8C209.5,234.7,205.9,236,203,236z"/>
	<path class="st0" d="M226.2,236.1c-2.2,0-3.1-1.1-3.1-3.8v-29.9h-5.4v31c0,4.8,2.2,6.8,6.8,6.8c2.5,0,4.9-0.9,6.4-1.8l-0.5-3.7
		C229,235.4,227.8,236.1,226.2,236.1z"/>
	<path class="st0" d="M224,191.9l25.9-12.8c0.6,0.6,1.5,1,2.5,1c1.8,0,3.2-1.2,3.2-2.8c0-1-0.6-1.8-1.4-2.3l21.7-61.2
		c0.1,0,0.3,0,0.4,0c1.8,0,3.2-1.2,3.2-2.8c0-1.5-1.4-2.8-3.2-2.8c-0.1,0-0.2,0-0.3,0L221.9,5c0.8-0.5,1.4-1.3,1.4-2.2
		c0-1.5-1.4-2.8-3.2-2.8c-1.8,0-3.2,1.2-3.2,2.8c0,1.1,0.8,2.1,1.9,2.5L192.6,149c-1,0.1-1.9,0.5-2.4,1.2L63.5,113.7
		c0-0.1,0-0.2,0-0.2c0-1.5-1.4-2.8-3.2-2.8s-3.2,1.2-3.2,2.8c0,1.5,1.4,2.8,3.2,2.8c0.9,0,1.7-0.3,2.3-0.9l154,76.3c0,0,0,0,0,0.1
		c0,2.3,1.6,3.2,3.8,3.2C222.5,194.9,223.9,194.1,224,191.9z M194.1,149.2l19.6-108.1l5.5-30.3l0.6,177.7c-0.4,0-0.8,0.1-1.1,0.2
		l-14-20.8c0,0,0,0,0,0l-9.6-14.2c0.6-0.5,1-1.2,1-2C196.1,150.6,195.3,149.6,194.1,149.2z M252.4,174.7c-1.8,0-3.2,1.2-3.2,2.8
		c0,0.2,0,0.4,0.1,0.6l-25.4,12.5c-0.1-0.3-0.2-0.5-0.3-0.7l50.2-74.1l-20.9,59C252.6,174.7,252.5,174.7,252.4,174.7z M217.4,189.5
		c-0.2,0.2-0.4,0.5-0.5,0.8L72.9,119l130.6,49.8L217.4,189.5z M273.1,111.2c0,0.7,0.3,1.3,0.8,1.8l-51.4,75.9
		c-0.3-0.1-0.7-0.2-1.1-0.3L220.7,5.8l53.9,103.1C273.6,109.3,273.1,110.2,273.1,111.2z M192.9,154.5c0.3,0,0.6-0.1,0.9-0.1
		l8.4,12.5L75.1,118.4l114.6,33c0,0.1,0,0.2,0,0.3C189.6,153.3,191.1,154.5,192.9,154.5z"/>
	<path class="st0" d="M252.2,205.5c7.1,0,10.9,3.5,11.4,9.9l4.4-1.3c-0.8-7.8-6.1-12.8-16.2-12.8c-11.8,0-19.3,8.2-19.3,19.7
		c0,11.3,5.9,19.4,19.7,19.4c6,0,11.4-2.1,15.4-5.2l-2.3-3.7c-3.5,2.6-8,4.7-12.5,4.7c-10.6,0-14.8-6.4-14.8-15.4
		C238,211.9,243.3,205.5,252.2,205.5z"/>
	<path class="st0" d="M290.9,219.9l-7.5-1.8c-4.6-1.1-6.7-2.4-6.7-5.5c0-4.2,3.6-6.9,10-6.9c4.2,0,8.7,1.2,11.6,2.6l1.4-4
		c-2.7-1.3-8.6-2.6-13.3-2.6c-9.6,0-15.3,4.7-15.3,11c0,4.9,3.2,7.5,9.2,9l7.5,1.8c3.9,1,6.8,2.3,6.8,5.7c0,3.8-3.2,6.9-9.3,6.9
		c-5.2,0-9.6-1.8-12.3-3.2l-1.2,4.2c2.8,1.3,7.8,3,13.8,3c9.4,0,14.4-5,14.4-11.2C300.2,223.9,296.7,221.3,290.9,219.9z"/>
</g>
</svg>
