<?xml version="1.0" encoding="utf-8"?>
<!-- Generator: Adobe Illustrator 19.1.0, SVG Export Plug-In . SVG Version: 6.00 Build 0)  -->
<svg version="1.1" id="Layer_1" xmlns="http://www.w3.org/2000/svg" xmlns:xlink="http://www.w3.org/1999/xlink" x="0px" y="0px"
	 viewBox="0 0 27.087 15.326" style="enable-background:new 0 0 27.087 15.326;" xml:space="preserve">
<style type="text/css">
	.st0{fill:none;stroke:#575858;stroke-width:14;stroke-miterlimit:10;}
	.st1{fill:#FFFFFF;stroke:#000000;stroke-miterlimit:10;}
	.st2{fill:#DEDEDE;}
	.st3{fill:#C6C6C6;}
	.st4{fill:#FFFFFF;}
	.st5{fill:#FFFFFF;stroke:#FFFFFF;stroke-miterlimit:10;}
	.st6{fill:#AFAFAF;}
	.st7{fill:#262626;}
	.st8{fill:#109692;}
	.st9{fill:#AAAAAA;}
	.st10{fill:#999999;}
	.st11{fill:none;stroke:#109692;stroke-width:0.5;stroke-miterlimit:10;}
	.st12{fill:#575858;}
	.st13{fill:#595959;}
	.st14{opacity:0.12;enable-background:new    ;}
	.st15{fill:#51BFC5;}
	.st16{fill:#FFD400;}
	.st17{fill:#020202;}
	.st18{fill:#FFA300;}
	.st19{fill:#FFFDC0;}
	.st20{fill:#F998B2;}
	.st21{fill:#FFCC99;}
	.st22{fill:#5D5D5D;}
	.st23{fill:#3D3A38;}
	.st24{fill:#E4E4E4;}
	.st25{fill:#E2E2E2;}
	.st26{fill:#CFCFCF;}
	.st27{fill:#D4D4D4;}
	.st28{fill:#979797;}
	.st29{fill:#D5D5D5;}
	.st30{fill:#CBCBCB;}
	.st31{fill:#D3D3D3;}
	.st32{fill:#D6D6D6;}
	.st33{fill:#BCBCBC;}
	.st34{fill:#D7D7D7;}
	.st35{fill:#DBDBDB;}
	.st36{fill:#DDDDDD;}
	.st37{fill:#BEBEBE;}
	.st38{fill:#DFDFDF;}
	.st39{fill:#DADADA;}
	.st40{fill:#DCDCDC;}
	.st41{fill:#D0D0D0;}
	.st42{fill:#C2C2C2;}
	.st43{fill:#ACACAC;}
	.st44{fill:#C1C1C1;}
	.st45{fill:#BFBFBF;}
	.st46{fill:#C4C4C4;}
	.st47{fill:#B9B9B9;}
	.st48{fill:#B3B3B3;}
	.st49{fill:#ABABAB;}
	.st50{fill:#B0B0B0;}
	.st51{fill:#B1B1B1;}
	.st52{fill:#1E3B50;}
	.st53{fill:#00918A;}
	.st54{fill:#006682;}
	.st55{fill:#05CCAA;}
	.st56{fill:#8AE295;}
	.st57{fill:#CFF487;}
	.st58{fill-rule:evenodd;clip-rule:evenodd;fill:#FFFFFF;}
	.st59{fill-rule:evenodd;clip-rule:evenodd;fill:#3D3A38;}
	.st60{opacity:0.81;}
	.st61{display:none;fill:#3D3A38;}
	.st62{fill:#777777;}
	.st63{fill:#51BFC5;stroke:#51BFC5;stroke-width:0.1;stroke-miterlimit:10;}
	.st64{fill:#FFA543;}
	.st65{fill:#FFE45F;}
	.st66{fill:#F76B75;}
	.st67{fill:none;stroke:#4BFF45;stroke-miterlimit:10;}
	.st68{fill:#FDC365;}
	.st69{fill:#FBA66A;}
	.st70{fill:#F98670;}
	.st71{fill:#F76C75;}
	.st72{fill:#F76D75;}
	.st73{fill:#F76E74;}
	.st74{fill:#F76F74;}
	.st75{fill:#F77074;}
	.st76{fill:#F77174;}
	.st77{fill:#F77274;}
	.st78{fill:#F87374;}
	.st79{fill:#F87473;}
	.st80{fill:#F87573;}
	.st81{fill:#F87673;}
	.st82{fill:#F87773;}
	.st83{fill:#F87873;}
	.st84{fill:#F87972;}
	.st85{fill:#F87A72;}
	.st86{fill:#F87B72;}
	.st87{fill:#F87C72;}
	.st88{fill:#F87D72;}
	.st89{fill:#F87E72;}
	.st90{fill:#F87F71;}
	.st91{fill:#F88071;}
	.st92{fill:#F88171;}
	.st93{fill:#F98271;}
	.st94{fill:#F98371;}
	.st95{fill:#F98470;}
	.st96{fill:#F98570;}
	.st97{fill:#F98770;}
	.st98{fill:#F98870;}
	.st99{fill:#F98970;}
	.st100{fill:#F98A6F;}
	.st101{fill:#F98B6F;}
	.st102{fill:#F98C6F;}
	.st103{fill:#F98D6F;}
	.st104{fill:#F98E6F;}
	.st105{fill:#F98F6E;}
	.st106{fill:#F9906E;}
	.st107{fill:#FA916E;}
	.st108{fill:#FA926E;}
	.st109{fill:#FA936E;}
	.st110{fill:#FA946D;}
	.st111{fill:#FA956D;}
	.st112{fill:#FA966D;}
	.st113{fill:#FA976D;}
	.st114{fill:#FA986D;}
	.st115{fill:#FA996D;}
	.st116{fill:#FA9A6C;}
	.st117{fill:#FA9B6C;}
	.st118{fill:#FA9C6C;}
	.st119{fill:#FA9D6C;}
	.st120{fill:#FA9E6C;}
	.st121{fill:#FA9F6B;}
	.st122{fill:#FBA06B;}
	.st123{fill:#FBA16B;}
	.st124{fill:#FBA26B;}
	.st125{fill:#FBA36B;}
	.st126{fill:#FBA46B;}
	.st127{fill:#FBA56A;}
	.st128{fill:#FBA86A;}
	.st129{fill:#FBA96A;}
	.st130{fill:#FBAA6A;}
	.st131{fill:#FBAB69;}
	.st132{fill:#FBAC69;}
	.st133{fill:#FBAD69;}
	.st134{fill:#FBAE69;}
	.st135{fill:#FBAF69;}
	.st136{fill:#FCB069;}
	.st137{fill:#FCB168;}
	.st138{fill:#FCB268;}
	.st139{fill:#FCB368;}
	.st140{fill:#FCB468;}
	.st141{fill:#FCB568;}
	.st142{fill:#FCB667;}
	.st143{fill:#FCB767;}
	.st144{fill:#FCB867;}
	.st145{fill:#FCB967;}
	.st146{fill:#FCBA67;}
	.st147{fill:#FCBB67;}
	.st148{fill:#FCBC66;}
	.st149{fill:#FCBD66;}
	.st150{fill:#FCBE66;}
	.st151{fill:#FDBF66;}
	.st152{fill:#FDC066;}
	.st153{fill:#FDC165;}
	.st154{fill:#FDC265;}
	.st155{fill:#FDC465;}
	.st156{fill:#FDC565;}
	.st157{fill:#FDC665;}
	.st158{fill:#FDC764;}
	.st159{fill:#FDC864;}
	.st160{fill:#FDC964;}
	.st161{fill:#FDCA64;}
	.st162{fill:#FDCB64;}
	.st163{fill:#FDCC63;}
	.st164{fill:#FDCD63;}
	.st165{fill:#FECE63;}
	.st166{fill:#FECF63;}
	.st167{fill:#FED063;}
	.st168{fill:#FED162;}
	.st169{fill:#FED262;}
	.st170{fill:#FED362;}
	.st171{fill:#FED462;}
	.st172{fill:#FED562;}
	.st173{fill:#FED662;}
	.st174{fill:#FED761;}
	.st175{fill:#FED861;}
	.st176{fill:#FED961;}
	.st177{fill:#FEDA61;}
	.st178{fill:#FEDB61;}
	.st179{fill:#FEDC60;}
	.st180{fill:#FFDD60;}
	.st181{fill:#FFDE60;}
	.st182{fill:#FFDF60;}
	.st183{fill:#FFE060;}
	.st184{fill:#FFE160;}
	.st185{fill:#FFE25F;}
	.st186{fill:#FFE35F;}
	.st187{fill:none;stroke:#FFFFFF;stroke-width:4;stroke-linecap:round;stroke-linejoin:round;stroke-miterlimit:10;}
	.st188{fill:none;stroke:#FFFFFF;stroke-width:5;stroke-miterlimit:10;}
	.st189{fill:none;stroke:#FFFFFF;stroke-width:5;stroke-linecap:round;stroke-linejoin:round;stroke-miterlimit:10;}
</style>
<g>
	<g>
		<g>
			<path class="st4" d="M24.599,6.338H9.049c-0.592,0-1.072-0.48-1.072-1.072l0,0c0-0.592,0.48-1.072,1.072-1.072h15.551
				c0.592,0,1.072,0.48,1.072,1.072l0,0C25.671,5.858,25.191,6.338,24.599,6.338z"/>
			<path class="st4" d="M24.599,6.357H9.049c-0.602,0-1.091-0.49-1.091-1.091s0.49-1.091,1.091-1.091h15.551
				c0.602,0,1.091,0.49,1.091,1.091c0,0.292-0.113,0.566-0.32,0.772C25.165,6.243,24.891,6.357,24.599,6.357z M9.049,4.213
				c-0.581,0-1.053,0.472-1.053,1.053s0.472,1.053,1.053,1.053h15.551c0.281,0,0.546-0.11,0.745-0.308
				c0.199-0.199,0.308-0.463,0.308-0.745c0-0.581-0.472-1.053-1.053-1.053H9.049z"/>
		</g>
		<g>
			<path class="st4" d="M24.599,11.135H9.049c-0.592,0-1.072-0.48-1.072-1.072l0,0c0-0.592,0.48-1.072,1.072-1.072h15.551
				c0.592,0,1.072,0.48,1.072,1.072l0,0C25.671,10.655,25.191,11.135,24.599,11.135z"/>
			<path class="st4" d="M24.599,11.154H9.049c-0.602,0-1.091-0.49-1.091-1.091c0-0.602,0.49-1.091,1.091-1.091h15.551
				c0.602,0,1.091,0.49,1.091,1.091c0,0.291-0.113,0.566-0.32,0.772C25.165,11.041,24.891,11.154,24.599,11.154z M9.049,9.01
				c-0.581,0-1.053,0.472-1.053,1.053c0,0.581,0.472,1.053,1.053,1.053h15.551c0.281,0,0.546-0.11,0.745-0.308
				c0.199-0.199,0.308-0.463,0.308-0.745c0-0.581-0.472-1.053-1.053-1.053H9.049z"/>
		</g>
	</g>
	<g>
		<path class="st13" d="M7.662,2.24V2.239l18.306-0.002c0.618,0,1.118-0.501,1.118-1.118v0C27.087,0.501,26.586,0,25.968,0
			L7.558,0.002v0.001C3.374,0.059,0,3.467,0,7.664s3.374,7.605,7.558,7.661v0.001H7.66l0.002,0v0l18.306-0.002
			c0.618,0,1.118-0.501,1.118-1.118l0,0c0-0.618-0.501-1.119-1.119-1.118L7.662,13.089v-0.001c-2.943-0.061-5.31-2.466-5.31-5.424
			S4.719,2.302,7.662,2.24z"/>
	</g>
</g>
</svg>
