<?xml version="1.0" encoding="utf-8"?>
<!-- Generator: Adobe Illustrator 19.1.0, SVG Export Plug-In . SVG Version: 6.00 Build 0)  -->
<svg version="1.1" id="Layer_1" xmlns="http://www.w3.org/2000/svg" xmlns:xlink="http://www.w3.org/1999/xlink" x="0px" y="0px"
	 viewBox="0 0 65.659 64.648" style="enable-background:new 0 0 65.659 64.648;" xml:space="preserve">
<style type="text/css">
	.st0{fill:none;}
	.st1{fill:#DEDEDE;}
	.st2{fill:#5D5D5D;}
	.st3{fill:none;stroke:#FFA543;stroke-miterlimit:10;}
	.st4{fill:#B0B0B0;}
	.st5{fill:#FFFFFF;}
	.st6{fill:#C6C6C6;}
	.st7{fill:#FFFFFF;stroke:#FFFFFF;stroke-miterlimit:10;}
	.st8{fill:#AFAFAF;}
	.st9{fill:#262626;}
	.st10{display:none;fill:#3D3A38;}
	.st11{fill:#3D3A38;}
	.st12{fill:#777777;}
	.st13{fill:#595959;}
	.st14{fill:#FFFFFF;stroke:#828282;stroke-miterlimit:10;}
	.st15{fill:none;stroke:#5D5D5D;stroke-miterlimit:10;}
	.st16{fill:#FFFFFF;stroke:#FFA543;stroke-linecap:round;stroke-linejoin:round;stroke-miterlimit:10;}
	.st17{opacity:0.73;}
	.st18{fill:#1FE5FF;}
	.st19{fill:#A3E56E;}
	.st20{fill:#E84652;}
	.st21{fill:#FFC33E;}
	.st22{fill:none;stroke:#FF931E;stroke-miterlimit:10;}
	.st23{fill:#34E5D7;}
	.st24{fill:#ED5259;}
	.st25{fill:#F9DC62;}
	.st26{fill:#847F6D;}
	.st27{fill:#6D6853;}
	.st28{fill:none;stroke:#EAEAEA;stroke-width:10;stroke-linecap:round;stroke-linejoin:round;stroke-miterlimit:10;}
	.st29{fill:none;stroke:#000000;stroke-width:10;stroke-linecap:round;stroke-linejoin:round;stroke-miterlimit:10;}
	.st30{fill:none;stroke:#A3E56E;stroke-miterlimit:10;}
	.st31{fill:none;stroke:#FFFFFF;stroke-width:14;stroke-linecap:round;stroke-linejoin:round;stroke-miterlimit:10;}
</style>
<path class="st4" d="M54.055,0c-6.409,0-11.604,5.195-11.604,11.604c0,0.269,0.012,0.534,0.03,0.798L19.847,22.642
	c-2.103-2.122-5.019-3.438-8.243-3.438C5.195,19.204,0,24.399,0,30.808c0,6.409,5.195,11.604,11.604,11.604
	c2.069,0,4.009-0.544,5.691-1.492l9.672,8.184c-0.444,1.231-0.687,2.557-0.687,3.941c0,6.409,5.195,11.604,11.604,11.604
	c6.409,0,11.604-5.195,11.604-11.604S44.292,41.44,37.883,41.44c-2.069,0-4.009,0.544-5.691,1.492l-9.672-8.184
	c0.444-1.231,0.688-2.557,0.688-3.941c0-0.269-0.012-0.534-0.03-0.798L45.812,19.77c2.103,2.122,5.019,3.438,8.243,3.438
	c6.409,0,11.604-5.195,11.604-11.604C65.659,5.195,60.463,0,54.055,0z"/>
</svg>
