<?xml version="1.0" encoding="utf-8"?>
<!-- Generator: Adobe Illustrator 19.1.0, SVG Export Plug-In . SVG Version: 6.00 Build 0)  -->
<svg version="1.1" id="Layer_1" xmlns="http://www.w3.org/2000/svg" xmlns:xlink="http://www.w3.org/1999/xlink" x="0px" y="0px"
	 viewBox="0 0 166.603 90.441" enable-background="new 0 0 166.603 90.441" xml:space="preserve">
<g id="MINHA">
	<rect fill="#999999" width="54" height="19"/>
	<rect y="35" fill="#999999" width="54" height="18"/>
	<rect y="69" fill="#999999" width="54" height="18"/>
	<rect x="72" fill="#999999" width="55" height="19"/>
	<rect x="72" y="35" fill="#999999" width="55" height="18"/>
	<rect x="72" y="69" fill="#999999" width="55" height="18"/>
	<path fill="#999999" d="M166.522,74.277l-0.168-55.832l-0.027-8.044c0-0.646-0.438-1.17-1.029-1.344l-0.023-6.867
		c0-0.79-0.644-1.427-1.433-1.424l-15.129,0.046c-0.789,0.002-1.425,0.644-1.425,1.433l0.023,6.849
		c-0.259,0.06-0.507,0.167-0.697,0.358c-0.267,0.269-0.415,0.633-0.415,1.011l0.023,8.044l0.172,56.01
		c-0.057,0.335-0.038,0.678,0.149,0.976l8.765,14.269c0.263,0.424,0.724,0.682,1.223,0.68c0.381-0.001,0.743-0.156,1.01-0.421
		c0.076-0.08,0.149-0.169,0.206-0.267l8.681-14.321C166.641,75.078,166.644,74.663,166.522,74.277z M162.426,3.627l0.015,5.185
		L150.166,8.85l-0.015-5.187L162.426,3.627z M149.061,11.882l14.417-0.044l0.015,5.186l-14.417,0.044L149.061,11.882z
		 M156.519,86.27l-6.197-10.08l12.328-0.037L156.519,86.27z M149.248,73.311l-0.164-53.385l14.417-0.044l0.164,53.385
		L149.248,73.311z"/>
</g>
</svg>
