<?xml version="1.0" encoding="utf-8"?>
<!-- Generator: Adobe Illustrator 20.1.0, SVG Export Plug-In . SVG Version: 6.00 Build 0)  -->
<svg version="1.1" id="Layer_1" xmlns="http://www.w3.org/2000/svg" xmlns:xlink="http://www.w3.org/1999/xlink" x="0px" y="0px"
	 viewBox="0 0 66.17 68.943" style="enable-background:new 0 0 66.17 68.943;" xml:space="preserve">
<style type="text/css">
	.st0{fill:#6D6D6D;}
	.st1{fill:#DEDEDE;stroke:#DEDEDE;stroke-miterlimit:10;}
	.st2{fill:#74CCD1;}
	.st3{fill:#3C8E92;}
	.st4{fill:#1D4346;}
	.st5{opacity:0.42;fill:#5D5D5D;}
	.st6{fill:#87BA27;}
	.st7{fill:#5D5D5D;}
	.st8{fill:none;stroke:#FFA543;stroke-miterlimit:10;}
	.st9{fill:#FFA543;}
	.st10{fill:#FFFFFF;}
	.st11{fill:#C6C6C6;}
	.st12{fill:#CCCCCC;}
	.st13{fill:#FFFFFF;stroke:#87BA27;stroke-miterlimit:10;}
	.st14{fill:#FFFFFF;stroke:#FFFFFF;stroke-miterlimit:10;}
	.st15{fill:#AFAFAF;}
	.st16{display:none;fill:#3D3A38;}
	.st17{fill:#3D3A38;}
	.st18{fill:#777777;}
	.st19{fill:#98C92D;}
	.st20{fill:#FFFDFD;}
	.st21{fill:#1FE5FF;}
	.st22{fill:#7F7F7F;}
	.st23{fill:#34E5D7;}
	.st24{fill:#FFC33E;}
	.st25{fill:#ED5259;}
	.st26{fill:none;stroke:#FF931E;stroke-miterlimit:10;}
	.st27{fill:#6C951F;}
	.st28{fill:#CFCFCF;}
	.st29{fill:#1E3B50;}
	.st30{fill:#00918A;}
	.st31{fill:#006682;}
	.st32{fill:#05CCAA;}
	.st33{fill:#8AE295;}
	.st34{fill:#CFF487;}
	.st35{fill-rule:evenodd;clip-rule:evenodd;fill:#FFFFFF;}
	.st36{fill-rule:evenodd;clip-rule:evenodd;fill:#3D3A38;}
	.st37{fill:#999999;}
	.st38{opacity:0.81;}
	.st39{fill:#9E9E9E;}
	.st40{fill:#707070;}
	.st41{fill:#3E4095;}
	.st42{fill:#FEFEFE;}
	.st43{fill:#00AEEE;}
	.st44{fill:#F2F2F2;}
	.st45{fill:#E4E4E4;}
	.st46{fill:#7A7A7A;}
	.st47{fill:#8E8E8E;}
	.st48{fill:#C0C0C0;}
	.st49{fill:#A0A0A0;}
	.st50{fill:#DFDFDF;}
	.st51{fill:#DCDCDC;}
	.st52{fill:#BDBDBD;}
	.st53{fill:#D0D0D0;}
	.st54{fill:#D5D5D5;}
	.st55{fill:#FFFFFF;stroke:#FFFFFF;stroke-width:4;stroke-linecap:round;stroke-linejoin:round;stroke-miterlimit:10;}
	.st56{fill:none;stroke:#FFFFFF;stroke-width:4;stroke-linecap:round;stroke-linejoin:round;stroke-miterlimit:10;}
	.st57{fill:#4AAFAF;}
	.st58{opacity:0.74;}
	.st59{fill:#CBCBCB;}
	.st60{opacity:0.12;fill:#DEDEDE;}
	.st61{opacity:0.12;}
	.st62{fill:#DEDEDE;}
	.st63{fill:none;stroke:#51BFC5;stroke-width:2;stroke-miterlimit:10;}
	.st64{fill:none;stroke:#51BFC5;stroke-width:3;stroke-linecap:round;stroke-linejoin:round;stroke-miterlimit:10;}
	.st65{opacity:0.6;fill:#00FFFF;}
	.st66{fill:none;stroke:#4AAFAF;stroke-width:5;stroke-linecap:round;stroke-linejoin:round;stroke-miterlimit:10;}
	.st67{fill:none;stroke:#FFFFFF;stroke-miterlimit:10;}
	.st68{fill:none;stroke:#7A828C;stroke-miterlimit:10;}
	.st69{opacity:0.52;}
	.st70{fill:#778E90;}
	.st71{fill:#1E4749;}
	.st72{fill:#F7F7F7;}
	.st73{fill:#142E30;}
	.st74{fill:#2E6C6F;}
	.st75{fill:#3A5152;}
	.st76{fill:#C9C9C9;stroke:#DEDEDE;stroke-miterlimit:10;}
	.st77{opacity:0.35;fill:#DEDEDE;}
	.st78{opacity:0.35;}
	.st79{fill:none;stroke:#FFFFFF;stroke-width:12;stroke-linecap:round;stroke-linejoin:round;stroke-miterlimit:10;}
	.st80{opacity:0.2;fill:#51BFC5;}
	.st81{fill:#3A3A3A;}
	.st82{fill:#257478;}
	.st83{fill:#1C575A;}
	.st84{fill:#3D8F94;}
	.st85{fill:#AAAAAA;}
	.st86{fill:none;stroke:#FFFFFF;stroke-width:4;stroke-miterlimit:10;}
</style>
<g>
	<g>
		<path class="st37" d="M66.17,68.943H0V0h66.17V68.943z M2.701,66.542H63.47V2.401H2.701V66.542z"/>
	</g>
	<g>
		<g>
			<path class="st37" d="M20.398,29.93c-1.675,0-3.249-0.237-4.717-0.713c-4.729-1.532-6.529-5.039-6.603-5.188
				c-0.444-0.89-0.084-1.972,0.805-2.416c0.886-0.441,1.96-0.089,2.409,0.791c0.197,0.375,4.654,8.338,19.829,0.434
				c0.883-0.458,1.97-0.117,2.429,0.764c0.46,0.882,0.117,1.97-0.764,2.429C28.806,28.627,24.323,29.93,20.398,29.93z"/>
		</g>
		<g>
			<path class="st37" d="M29.859,19.348c-6.046,0-10.658-5.81-10.879-6.095c-0.612-0.784-0.472-1.917,0.312-2.528
				c0.784-0.612,1.913-0.474,2.526,0.311c0.077,0.097,4.862,6.043,9.852,4.42c0.95-0.313,1.962,0.21,2.27,1.154
				c0.308,0.946-0.208,1.961-1.154,2.27C31.783,19.206,30.803,19.348,29.859,19.348z"/>
		</g>
		<g>
			<path class="st37" d="M20.398,39.177c-1.676,0-3.25-0.238-4.717-0.714c-4.729-1.532-6.529-5.038-6.603-5.186
				c-0.444-0.89-0.084-1.971,0.805-2.416c0.886-0.441,1.959-0.089,2.409,0.791c0.197,0.374,4.654,8.34,19.829,0.433
				c0.883-0.458,1.97-0.116,2.429,0.764c0.46,0.882,0.117,1.97-0.764,2.429C28.805,37.873,24.323,39.177,20.398,39.177z"/>
		</g>
		<g>
			<path class="st37" d="M20.398,48.437c-1.676,0-3.25-0.237-4.717-0.713c-4.729-1.532-6.529-5.039-6.603-5.188
				c-0.444-0.89-0.084-1.972,0.805-2.416c0.886-0.441,1.96-0.089,2.409,0.791c0.2,0.379,4.658,8.339,19.829,0.433
				c0.883-0.458,1.97-0.117,2.429,0.764c0.46,0.882,0.117,1.97-0.764,2.429C28.805,47.134,24.323,48.437,20.398,48.437z"/>
		</g>
		<g>
			<path class="st37" d="M19.317,58.941c-0.526,0-1.039-0.05-1.537-0.152c-3.926-0.801-5.279-4.399-5.334-4.551
				c-0.341-0.934,0.141-1.968,1.075-2.308c0.93-0.339,1.957,0.135,2.302,1.06c0.043,0.109,0.781,1.906,2.717,2.279
				c1.741,0.338,5.767-0.273,13.097-8.111c0.681-0.728,1.821-0.764,2.545-0.086c0.727,0.68,0.764,1.819,0.086,2.545
				C28.473,55.814,23.453,58.941,19.317,58.941z"/>
		</g>
		<g>
			<path class="st37" d="M46.841,29.93c-3.925,0-8.407-1.302-13.388-3.898c-0.882-0.46-1.224-1.547-0.764-2.429
				c0.46-0.882,1.546-1.223,2.429-0.764c6.131,3.195,11.431,4.216,15.331,2.953c3.257-1.056,4.479-3.349,4.491-3.373
				c0.445-0.889,1.528-1.246,2.416-0.805c0.89,0.444,1.25,1.526,0.805,2.416c-0.074,0.149-1.873,3.655-6.603,5.188
				C50.091,29.693,48.517,29.93,46.841,29.93z"/>
		</g>
		<g>
			<path class="st37" d="M37.382,19.348c-0.946,0-1.925-0.142-2.928-0.469c-0.946-0.307-1.462-1.324-1.154-2.27
				c0.307-0.945,1.321-1.468,2.27-1.154c5.048,1.648,9.802-4.358,9.851-4.417c0.612-0.785,1.743-0.926,2.526-0.313
				c0.784,0.611,0.925,1.742,0.313,2.526C48.038,13.538,43.426,19.348,37.382,19.348z"/>
		</g>
		<g>
			<path class="st37" d="M46.841,39.177c-3.925,0-8.407-1.304-13.388-3.899c-0.882-0.46-1.224-1.547-0.764-2.429
				c0.46-0.88,1.546-1.223,2.429-0.764c15.202,7.921,19.648-0.089,19.83-0.435c0.46-0.872,1.538-1.222,2.421-0.771
				c0.878,0.45,1.233,1.516,0.792,2.399c-0.074,0.149-1.873,3.654-6.603,5.186C50.091,38.939,48.517,39.177,46.841,39.177z"/>
		</g>
		<g>
			<path class="st37" d="M46.841,48.437c-3.925,0-8.407-1.302-13.388-3.899c-0.882-0.46-1.224-1.547-0.764-2.429
				c0.46-0.882,1.546-1.223,2.429-0.764c6.131,3.196,11.431,4.215,15.331,2.953c3.257-1.055,4.479-3.348,4.491-3.372
				c0.445-0.889,1.528-1.247,2.416-0.805c0.89,0.444,1.25,1.526,0.805,2.416c-0.074,0.149-1.873,3.655-6.603,5.188
				C50.091,48.201,48.517,48.437,46.841,48.437z"/>
		</g>
		<g>
			<path class="st37" d="M47.923,58.941c-4.137,0-9.156-3.128-14.953-9.325c-0.679-0.726-0.641-1.865,0.086-2.545
				c0.726-0.679,1.864-0.642,2.545,0.086c7.37,7.879,11.389,8.46,13.14,8.103c1.943-0.396,2.664-2.237,2.671-2.256
				c0.34-0.933,1.373-1.415,2.308-1.075c0.934,0.34,1.416,1.374,1.075,2.308c-0.055,0.152-1.408,3.75-5.334,4.551
				C48.963,58.891,48.45,58.941,47.923,58.941z"/>
		</g>
	</g>
	<g>
		<g>
			<path class="st37" d="M33.92,52.764c-1.303,0-2-0.837-2-1.869V14.377c0-1.032,0.697-1.869,2-1.869s2,0.837,2,1.869v36.517
				C35.92,51.927,35.224,52.764,33.92,52.764z"/>
		</g>
	</g>
</g>
</svg>
