<?xml version="1.0" standalone="no"?>
<!DOCTYPE svg PUBLIC "-//W3C//DTD SVG 20010904//EN"
 "http://www.w3.org/TR/2001/REC-SVG-20010904/DTD/svg10.dtd">
<svg version="1.0" xmlns="http://www.w3.org/2000/svg"
 width="225.000000pt" height="225.000000pt" viewBox="0 0 225.000000 225.000000"
 preserveAspectRatio="xMidYMid meet">

<g transform="translate(0.000000,225.000000) scale(0.100000,-0.100000)"
fill="#000000" stroke="none">
<path d="M0 1125 l0 -1125 1125 0 1125 0 0 1125 0 1125 -1125 0 -1125 0 0
-1125z m1445 789 c2 -24 234 -544 251 -563 10 -11 10 -18 -1 -35 -15 -24 -95
-287 -100 -326 -1 -15 -10 -26 -21 -29 -10 -2 -38 -15 -62 -28 -24 -14 -45
-23 -48 -20 -3 3 11 14 33 25 21 11 48 29 60 39 18 16 54 117 99 278 3 11 -40
-59 -96 -154 -91 -156 -106 -185 -109 -213 -2 -13 -33 -9 -45 6 -15 19 -704
416 -722 416 -8 0 -14 4 -14 9 0 18 20 22 42 8 26 -17 577 -201 583 -195 5 4
117 720 120 768 4 44 3 42 17 38 6 -2 12 -13 13 -24z m-995 -839 c0 -120 1
-125 21 -125 12 0 19 -5 17 -12 -3 -7 -18 -13 -34 -13 l-29 0 -3 138 c-2 117
0 137 13 137 13 0 15 -20 15 -125z m290 78 c0 -37 3 -44 12 -35 13 13 56 16
83 6 48 -19 60 -125 19 -173 -28 -33 -78 -43 -102 -19 -9 9 -12 9 -12 0 0 -7
-7 -12 -15 -12 -13 0 -15 22 -15 140 0 118 2 140 15 140 11 0 15 -12 15 -47z
m-80 -115 c0 -83 1 -88 21 -88 28 0 19 -24 -11 -28 -12 -2 -26 2 -31 10 -6 10
-11 10 -21 0 -6 -6 -26 -12 -43 -12 -78 0 -115 130 -55 190 16 16 32 19 80 18
l60 -2 0 -88z m410 -249 c0 -126 1 -131 20 -126 12 3 20 0 20 -8 0 -17 -33
-25 -54 -13 -23 13 -24 278 -1 278 13 0 15 -21 15 -131z m250 83 c0 -26 2 -28
35 -24 27 3 35 1 35 -12 0 -12 -9 -16 -35 -16 l-35 0 0 -69 c0 -77 14 -100 49
-82 21 12 41 -3 25 -19 -22 -21 -62 -22 -83 -1 -18 18 -21 33 -21 97 0 85 -15
96 -39 28 -74 -205 -86 -223 -137 -210 -37 10 -31 37 6 30 25 -5 31 -2 41 20
11 23 8 38 -29 126 -25 62 -37 102 -30 106 15 10 25 -5 56 -90 l29 -79 29 84
c24 69 33 85 52 87 13 2 22 10 22 21 0 10 3 21 7 24 14 14 23 6 23 -21z m-790
-32 c9 -6 17 -5 21 2 18 28 29 -9 29 -94 0 -76 2 -89 15 -84 9 3 15 0 15 -8 0
-21 -32 -29 -48 -13 -12 13 -18 13 -42 1 -34 -17 -70 -6 -94 28 -18 26 -21 96
-5 132 18 38 75 58 109 36z m125 0 c4 -7 12 -7 25 0 26 14 53 12 76 -4 15 -11
20 -30 24 -93 4 -67 7 -78 23 -75 10 2 17 -3 17 -13 0 -8 -2 -15 -4 -15 -2 0
-11 -3 -19 -6 -30 -11 -47 24 -47 95 0 69 -10 91 -41 91 -36 0 -49 -28 -49
-106 0 -59 -3 -74 -15 -74 -12 0 -15 18 -15 105 0 95 7 123 25 95z m285 0 c9
-6 17 -5 21 2 18 28 29 -9 29 -94 0 -76 2 -89 15 -84 9 3 15 0 15 -8 0 -19
-30 -29 -46 -15 -10 8 -22 8 -44 0 -63 -21 -110 22 -110 102 0 40 5 53 29 78
30 29 64 37 91 19z m508 -89 c2 -77 5 -92 17 -87 9 3 15 0 15 -8 0 -17 -24
-28 -44 -20 -8 3 -17 15 -20 27 -8 31 -7 172 1 181 19 19 28 -8 31 -93z m182
79 c20 -20 28 -60 12 -60 -5 0 -14 11 -20 25 -23 49 -97 24 -103 -35 -4 -50 2
-70 27 -86 22 -15 31 -16 61 -5 39 14 52 9 33 -13 -19 -24 -73 -30 -108 -12
-58 30 -67 128 -15 180 32 32 84 35 113 6z m148 14 c12 -4 22 -12 22 -20 0
-10 -10 -12 -43 -8 -33 5 -46 2 -56 -10 -18 -22 -6 -35 52 -56 43 -16 53 -33
43 -75 -11 -45 -116 -55 -124 -12 -3 15 0 16 24 6 41 -15 76 -4 72 24 -2 16
-14 26 -43 35 -67 21 -82 56 -40 97 24 25 50 30 93 19z"/>
<path d="M1438 1537 c1 -194 3 -410 5 -480 l2 -128 113 195 c61 107 112 205
112 218 0 16 -219 526 -234 545 0 1 0 -157 2 -350z"/>
<path d="M1365 1477 c-27 -177 -49 -334 -48 -349 1 -15 23 -64 49 -108 50 -88
56 -120 7 -43 -29 48 -31 49 -283 160 -139 62 -249 109 -244 104 5 -4 132 -79
282 -166 169 -97 277 -154 283 -148 5 5 8 184 7 440 l-3 431 -50 -321z"/>
<path d="M880 1248 c4 -5 296 -137 417 -189 l43 -18 -17 27 c-28 43 -38 48
-233 113 -102 34 -192 64 -200 67 -8 3 -13 3 -10 0z"/>
<path d="M753 1093 c-17 -6 -17 -115 -1 -131 20 -20 65 -14 82 10 35 50 9 129
-42 127 -15 0 -33 -3 -39 -6z"/>
<path d="M534 1075 c-18 -28 -14 -85 7 -111 14 -17 61 -18 77 -2 19 19 16 124
-4 132 -34 13 -64 6 -80 -19z"/>
<path d="M456 798 c-23 -32 -20 -94 4 -118 24 -24 38 -25 68 -4 30 21 33 118
3 134 -31 16 -59 12 -75 -12z"/>
<path d="M870 800 c-39 -39 -16 -140 33 -140 7 0 23 7 35 16 30 21 33 118 3
134 -29 15 -49 12 -71 -10z"/>
</g>
</svg>
