<?xml version="1.0" standalone="no"?>
<!DOCTYPE svg PUBLIC "-//W3C//DTD SVG 20010904//EN"
 "http://www.w3.org/TR/2001/REC-SVG-20010904/DTD/svg10.dtd">
<svg version="1.0" xmlns="http://www.w3.org/2000/svg"
 width="225.000000pt" height="225.000000pt" viewBox="0 0 225.000000 225.000000"
 preserveAspectRatio="xMidYMid meet">

<g transform="translate(0.000000,225.000000) scale(0.100000,-0.100000)"
fill="#000000" stroke="none">
<path d="M1269 1538 c-6 -27 -4 -36 10 -45 14 -9 16 -6 15 15 0 14 -6 28 -12
30 -7 2 -12 2 -13 0z"/>
<path d="M1310 1435 c0 -5 5 -17 10 -25 5 -8 10 -10 10 -5 0 6 -5 17 -10 25
-5 8 -10 11 -10 5z"/>
<path d="M1360 1305 c0 -5 5 -17 10 -25 5 -8 10 -10 10 -5 0 6 -5 17 -10 25
-5 8 -10 11 -10 5z"/>
<path d="M1075 1224 c-9 -15 -12 -23 -6 -20 11 7 35 46 28 46 -3 0 -12 -12
-22 -26z"/>
<path d="M1390 1225 c0 -5 5 -17 10 -25 5 -8 10 -10 10 -5 0 6 -5 17 -10 25
-5 8 -10 11 -10 5z"/>
<path d="M1021 1141 c-18 -27 -39 -52 -48 -55 -12 -5 -14 -9 -5 -18 9 -9 15
-9 24 0 7 7 9 12 5 12 -5 0 5 19 21 43 37 54 44 67 39 67 -3 0 -19 -22 -36
-49z"/>
<path d="M2145 1117 c-11 -13 -41 -37 -67 -55 -27 -18 -48 -35 -48 -38 0 -3
29 15 65 40 36 25 73 46 81 46 9 0 14 5 12 12 -7 20 -22 18 -43 -5z"/>
<path d="M1440 1095 c0 -5 5 -17 10 -25 5 -8 10 -10 10 -5 0 6 -5 17 -10 25
-5 8 -10 11 -10 5z"/>
<path d="M1998 1073 c7 -3 16 -2 19 1 4 3 -2 6 -13 5 -11 0 -14 -3 -6 -6z"/>
<path d="M928 1063 c7 -3 16 -2 19 1 4 3 -2 6 -13 5 -11 0 -14 -3 -6 -6z"/>
<path d="M888 1053 c7 -3 16 -2 19 1 4 3 -2 6 -13 5 -11 0 -14 -3 -6 -6z"/>
<path d="M1928 1053 c7 -3 16 -2 19 1 4 3 -2 6 -13 5 -11 0 -14 -3 -6 -6z"/>
<path d="M838 1043 c7 -3 16 -2 19 1 4 3 -2 6 -13 5 -11 0 -14 -3 -6 -6z"/>
<path d="M1015 1000 c14 -27 28 -50 30 -50 3 0 -6 23 -20 50 -14 28 -28 50
-30 50 -3 0 6 -22 20 -50z"/>
<path d="M788 1033 c7 -3 16 -2 19 1 4 3 -2 6 -13 5 -11 0 -14 -3 -6 -6z"/>
<path d="M1858 1033 c7 -3 16 -2 19 1 4 3 -2 6 -13 5 -11 0 -14 -3 -6 -6z"/>
<path d="M748 1023 c7 -3 16 -2 19 1 4 3 -2 6 -13 5 -11 0 -14 -3 -6 -6z"/>
<path d="M698 1013 c7 -3 16 -2 19 1 4 3 -2 6 -13 5 -11 0 -14 -3 -6 -6z"/>
<path d="M1470 1015 c0 -5 5 -17 10 -25 5 -8 10 -10 10 -5 0 6 -5 17 -10 25
-5 8 -10 11 -10 5z"/>
<path d="M1885 929 c-71 -49 -134 -95 -140 -101 -12 -13 244 159 265 178 29
28 2 11 -125 -77z"/>
<path d="M1748 1003 c7 -3 16 -2 19 1 4 3 -2 6 -13 5 -11 0 -14 -3 -6 -6z"/>
<path d="M570 985 c0 -8 7 -15 15 -15 17 0 662 -443 682 -468 12 -16 14 -16
28 2 18 24 12 34 -20 30 -20 -2 -90 42 -288 178 -411 283 -393 270 -371 279
15 6 12 8 -13 8 -23 1 -33 -4 -33 -14z"/>
<path d="M1678 983 c7 -3 16 -2 19 1 4 3 -2 6 -13 5 -11 0 -14 -3 -6 -6z"/>
<path d="M1490 941 c0 -23 4 -29 15 -25 8 4 15 10 15 16 0 5 -7 16 -15 24 -13
14 -15 12 -15 -15z"/>
<path d="M1445 830 c-19 -38 -33 -70 -30 -70 2 0 21 32 40 70 19 39 33 70 30
70 -2 0 -21 -31 -40 -70z"/>
<path d="M1110 820 c17 -33 33 -60 35 -60 3 0 -8 27 -25 60 -17 33 -33 60 -35
60 -3 0 8 -27 25 -60z"/>
<path d="M1530 684 c-107 -74 -199 -140 -205 -147 -7 -8 -6 -8 5 -1 8 6 102
70 208 143 164 113 204 143 190 141 -2 -1 -91 -62 -198 -136z"/>
<path d="M240 675 c0 -143 5 -158 47 -139 16 7 15 8 -4 11 -22 4 -23 7 -23
134 0 79 -4 129 -10 129 -6 0 -10 -52 -10 -135z"/>
<path d="M540 670 c0 -78 4 -140 9 -140 5 0 11 5 13 11 3 9 9 9 25 0 34 -17
62 -13 88 14 21 20 25 34 25 80 0 46 -4 60 -25 80 -25 26 -63 32 -96 15 -17
-10 -19 -7 -19 35 0 25 -4 45 -10 45 -6 0 -10 -53 -10 -140z m124 28 c9 -12
16 -42 16 -65 0 -67 -47 -101 -101 -73 -16 9 -19 22 -19 73 0 36 5 68 12 75
21 21 75 15 92 -10z"/>
<path d="M339 714 c-19 -21 -24 -36 -24 -81 0 -48 4 -58 28 -79 32 -27 64 -31
92 -10 17 12 21 12 31 -2 8 -10 17 -13 30 -7 17 7 18 8 2 12 -16 4 -18 17 -18
99 0 52 -4 94 -9 94 -5 0 -11 -5 -13 -11 -3 -9 -9 -9 -25 0 -35 18 -68 13 -94
-15z m102 -4 c26 -14 28 -114 2 -142 -24 -27 -68 -23 -92 8 -57 73 12 175 90
134z"/>
<path d="M1340 630 c-17 -33 -28 -60 -25 -60 2 0 18 27 35 60 17 33 28 60 25
60 -2 0 -18 -27 -35 -60z"/>
<path d="M1220 610 c17 -33 33 -60 35 -60 3 0 -8 27 -25 60 -17 33 -33 60 -35
60 -3 0 8 -27 25 -60z"/>
<path d="M882 383 l3 -138 28 -3 c15 -2 27 1 27 6 0 5 -8 9 -17 8 -16 -1 -18
12 -21 132 -1 79 -7 132 -13 132 -6 0 -9 -51 -7 -137z"/>
<path d="M1140 465 c0 -20 -5 -25 -24 -25 -20 0 -27 -10 -51 -77 -15 -43 -31
-82 -35 -86 -4 -5 -22 30 -40 77 -18 47 -37 86 -41 86 -13 0 -13 -1 31 -106
36 -86 39 -99 27 -123 -9 -18 -22 -28 -47 -31 -31 -5 -33 -7 -12 -14 51 -17
61 -4 125 169 22 60 38 91 50 93 15 3 17 -6 17 -81 0 -61 4 -88 14 -96 18 -15
78 -10 84 7 3 10 -2 10 -22 1 -43 -20 -56 1 -56 92 l0 78 38 4 37 4 -37 1
c-33 2 -38 5 -38 27 0 14 -4 25 -10 25 -5 0 -10 -11 -10 -25z"/>
<path d="M272 434 c-36 -15 -48 -49 -44 -125 4 -55 70 -87 122 -59 13 7 21 7
25 0 8 -12 55 -13 55 -1 0 5 -8 8 -17 7 -16 -1 -18 11 -21 92 -1 50 -7 92 -12
92 -6 0 -10 -5 -10 -11 0 -8 -4 -8 -12 -2 -23 18 -55 21 -86 7z m76 -20 c18
-13 22 -24 22 -74 0 -52 -3 -61 -25 -76 -58 -38 -120 34 -95 111 18 53 56 69
98 39z"/>
<path d="M520 443 c-8 -3 -23 -12 -32 -21 -16 -14 -18 -13 -18 1 0 10 -4 17
-10 17 -6 0 -10 -40 -10 -100 0 -60 4 -100 10 -100 6 0 10 31 10 73 0 64 3 76
23 95 51 48 87 18 87 -73 0 -35 3 -70 6 -79 6 -17 54 -23 54 -7 0 5 -8 8 -17
7 -15 -1 -19 11 -23 81 -3 45 -9 86 -15 91 -14 14 -47 21 -65 15z"/>
<path d="M714 443 c-65 -11 -87 -130 -34 -183 23 -23 79 -27 99 -7 11 10 14
10 18 0 5 -15 53 -18 53 -3 0 5 -7 7 -15 4 -20 -8 -27 29 -23 115 1 39 0 71
-4 71 -5 0 -8 -4 -8 -9 0 -6 -14 -4 -32 3 -18 7 -43 11 -54 9z m64 -29 c18
-12 22 -25 22 -68 0 -59 -13 -82 -52 -91 -67 -17 -107 97 -53 150 28 29 51 31
83 9z"/>
<path d="M1393 440 c-54 -22 -70 -138 -25 -182 26 -27 96 -28 120 -3 16 17 16
17 -3 10 -49 -19 -74 -17 -99 8 -36 36 -36 98 -1 132 32 33 68 32 94 -1 13
-16 21 -21 21 -12 0 40 -61 68 -107 48z"/>
<path d="M1575 442 c-31 -6 -45 -22 -45 -52 0 -33 16 -48 58 -56 39 -8 56 -27
47 -53 -8 -26 -42 -35 -79 -21 -21 8 -27 7 -24 -2 3 -7 24 -14 47 -16 49 -4
81 17 81 54 0 26 -8 33 -65 54 -68 26 -55 87 17 77 21 -3 38 -2 38 3 0 9 -48
17 -75 12z"/>
<path d="M1272 343 l3 -98 28 -3 c15 -2 27 1 27 6 0 5 -8 9 -17 8 -16 -1 -18
11 -21 92 -2 52 -7 92 -13 92 -6 0 -9 -37 -7 -97z"/>
</g>
</svg>
