<?xml version="1.0" encoding="utf-8"?>
<!-- Generator: Adobe Illustrator 19.1.0, SVG Export Plug-In . SVG Version: 6.00 Build 0)  -->
<svg version="1.1" id="Layer_1" xmlns="http://www.w3.org/2000/svg" xmlns:xlink="http://www.w3.org/1999/xlink" x="0px" y="0px"
	 viewBox="0 0 174.048 99.155" enable-background="new 0 0 174.048 99.155" xml:space="preserve">
<path id="CORRE" fill="#999999" d="M174.048,23.001C174.048,10.298,163.75,0,151.046,0c-12.703,0-23.002,10.298-23.002,23.001
	c0,12.679,10.26,22.959,22.929,22.998C141.49,73.52,115.351,93.353,84.65,93.353c-30.894,0-57.167-20.083-66.5-47.873
	c1.565,0.336,3.186,0.523,4.852,0.523c12.703,0,23.002-10.298,23.002-23.002S35.705,0,23.002,0C10.298,0,0,10.298,0,23.001
	c0,8.411,4.529,15.745,11.266,19.757C19.915,75.19,49.529,99.155,84.65,99.155c34.269,0,63.294-22.817,72.717-54.052
	C166.993,42.354,174.048,33.51,174.048,23.001z"/>
</svg>
