<?xml version="1.0" standalone="no"?><!DOCTYPE svg PUBLIC "-//W3C//DTD SVG 1.1//EN" "http://www.w3.org/Graphics/SVG/1.1/DTD/svg11.dtd"><svg xmlns:xlink="http://www.w3.org/1999/xlink" version="1.1" style="font-family:'lucida grande', 'lucida sans unicode', arial, helvetica, sans-serif;font-size:12px;" xmlns="http://www.w3.org/2000/svg" width="600" height="400"><desc>Created with Highcharts 4.2.0</desc><defs><clipPath id="highcharts-11"><rect x="0" y="0" width="580" height="324"></rect></clipPath></defs><g class="highcharts-series-group" ><g class="highcharts-series highcharts-series-0"  transform="translate(10,10) scale(1 1)"><path fill="#50B432" d="M 289.975253705751 41.50000252007854 A 121.5 121.5 0 0 1 321.6808118599213 45.70304283615762 L 290 163 A 0 0 0 0 0 290 163 Z" stroke="#FFFFFF" stroke-width="1" stroke-linejoin="round" transform="translate(0,0)"></path><path fill="#ED561B" d="M 321.798092957131 45.734782291211104 A 121.5 121.5 0 0 1 351.2960741547904 58.09508451359187 L 290 163 A 0 0 0 0 0 290 163 Z" stroke="#FFFFFF" stroke-width="1" stroke-linejoin="round" transform="translate(0,0)"></path><path fill="#DDDF00" d="M 351.40094840475814 58.156433029984 A 121.5 121.5 0 0 1 409.9674121149636 143.76279566988813 L 290 163 A 0 0 0 0 0 290 163 Z" stroke="#FFFFFF" stroke-width="1" stroke-linejoin="round" transform="translate(0,0)"></path><path fill="#24CBE5" d="M 409.98658933238653 143.88277268060992 A 121.5 121.5 0 0 1 410.8180518896339 175.8548954719097 L 290 163 A 0 0 0 0 0 290 163 Z" stroke="#FFFFFF" stroke-width="1" stroke-linejoin="round" transform="translate(0,0)"></path><path fill="#64E572" d="M 410.8051365872836 175.9757070762158 A 121.5 121.5 0 0 1 409.19729185027364 186.54263399793427 L 290 163 A 0 0 0 0 0 290 163 Z" stroke="#FFFFFF" stroke-width="1" stroke-linejoin="round" transform="translate(0,0)"></path><path fill="#FF9655" d="M 409.17368962155854 186.6618194986023 A 121.5 121.5 0 0 1 398.87037844935134 216.93969499631066 L 290 163 A 0 0 0 0 0 290 163 Z" stroke="#FFFFFF" stroke-width="1" stroke-linejoin="round" transform="translate(0,0)"></path><path fill="#FFF263" d="M 398.81638432816027 217.04853838676968 A 121.5 121.5 0 0 1 186.39241002008694 226.4642994017441 L 290 163 A 0 0 0 0 0 290 163 Z" stroke="#FFFFFF" stroke-width="1" stroke-linejoin="round" transform="translate(0,0)"></path><path fill="#6AF9C4" d="M 186.32899753505325 226.36066009688508 A 121.5 121.5 0 0 1 181.2156668405017 217.11301931183735 L 290 163 A 0 0 0 0 0 290 163 Z" stroke="#FFFFFF" stroke-width="1" stroke-linejoin="round" transform="translate(0,0)"></path><path fill="#2F7ED8" d="M 181.16160822237077 217.00420794030117 A 121.5 121.5 0 0 1 173.38720366606515 197.1131313599357 L 290 163 A 0 0 0 0 0 290 163 Z" stroke="#FFFFFF" stroke-width="1" stroke-linejoin="round" transform="translate(0,0)"></path><path fill="#0D233A" d="M 173.35314884678405 196.99650152647297 A 121.5 121.5 0 0 1 172.14032953523505 133.48139437681695 L 290 163 A 0 0 0 0 0 290 163 Z" stroke="#FFFFFF" stroke-width="1" stroke-linejoin="round" transform="translate(0,0)"></path><path fill="#8BBC21" d="M 172.16990706576877 133.36354948529706 A 121.5 121.5 0 0 1 189.61258751158545 94.55573498180505 L 290 163 A 0 0 0 0 0 290 163 Z" stroke="#FFFFFF" stroke-width="1" stroke-linejoin="round" transform="translate(0,0)"></path><path fill="#910000" d="M 189.6810819588983 94.45538180817753 A 121.5 121.5 0 0 1 289.8312389375243 41.50011720292157 L 290 163 A 0 0 0 0 0 290 163 Z" stroke="#FFFFFF" stroke-width="1" stroke-linejoin="round" transform="translate(0,0)"></path></g><g class="highcharts-markers highcharts-series-0"  transform="translate(10,10) scale(1 1)"></g></g><g class="highcharts-data-labels highcharts-series-0"  visibility="visible" transform="translate(10,10) scale(1 1)" opacity="1"><path fill="none" d="M 315.0115807087178 11 C 310.0115807087178 11 308.95486357558434 20.257379288656992 307.5018775175256 31.1609948135683 L 306.04889145946686 42.06461033847961" stroke="#50B432" stroke-width="1"></path><path fill="none" d="M 371.954532030284 32 C 366.954532030284 32 345.54171764851816 30.184590464102442 341.28416437929377 40.327235097516194 L 337.0266111100694 50.46987973092995" stroke="#ED561B" stroke-width="1"></path><path fill="none" d="M 420.0982121548137 77.04423766843331 C 415.0982121548137 77.04423766843331 408.4923659684209 81.5567531710903 399.4093274621308 87.76146198724366 L 390.3262889558407 93.96617080339702" stroke="#DDDF00" stroke-width="1"></path><path fill="none" d="M 446.43315356948756 158 C 441.43315356948756 158 433.4543164438404 158.87935176653338 422.45781831922545 159.15689274610224 L 411.4613201946105 159.4344337256711" stroke="#24CBE5" stroke-width="1"></path><path fill="none" d="M 444.76692871717114 185.34988101994813 C 439.76692871717114 185.34988101994813 431.85844403243607 184.14328664265716 420.9842775909253 182.48421937388204 L 410.1101111494145 180.82515210510692" stroke="#64E572" stroke-width="1"></path><path fill="none" d="M 438.4214690339928 211.31118949719857 C 433.4214690339928 211.31118949719857 425.8480581279074 208.73370094289103 415.43461813203993 205.1896541807182 L 405.02117813617247 201.64560741854538" stroke="#FF9655" stroke-width="1"></path><path fill="none" d="M 301.6879042554581 313.85231064199127 C 296.6879042554581 313.85231064199127 296.33474759510375 305.86010941997193 295.8491571871167 294.87083273969535 L 295.36356677912966 283.88155605941876" stroke="#FFF263" stroke-width="1"></path><path fill="none" d="M 156.03488843877193 242 C 161.03488843877193 242 164.3898031991152 231.88536199835656 174.01845939987987 226.5666234479599 L 183.64711560064455 221.24788489756324" stroke="#6AF9C4" stroke-width="1"></path><path fill="none" d="M 143.87309457418257 217.59488692185863 C 148.87309457418257 217.59488692185863 156.32534040524882 214.6855859622885 166.57217842296495 210.68529714287965 L 176.81901644068108 206.68500832347078" stroke="#2F7ED8" stroke-width="1"></path><path fill="none" d="M 133.52713021553473 165.36700527701444 C 138.52713021553473 165.36700527701444 146.52569759689266 165.2156122590863 157.52372774625977 165.00744685943508 L 168.52175789562688 164.79928145978386" stroke="#0D233A" stroke-width="1"></path><path fill="none" d="M 146.83209116911542 100.35598203124964 C 151.83209116911542 100.35598203124964 159.12808635490467 103.63751433322984 169.16007973536495 108.14962124845265 L 179.19207311582522 112.66172816367545" stroke="#8BBC21" stroke-width="1"></path><path fill="none" d="M 214.26916511602718 28.524632873739908 C 219.26916511602718 28.524632873739908 223.00412669405878 35.59923971869094 228.13969886385217 45.3268241304986 L 233.27527103364557 55.05440854230626" stroke="#910000" stroke-width="1"></path><g  style="cursor:pointer;" transform="translate(320,1)"><text x="5"  style="font-size:10px;font-weight:bold;font-family:'arial', sans-serif;color:#000000;text-shadow:0 0 6px #ffffff, 0 0 3px #ffffff;fill:#000000;text-rendering:geometricprecision;" y="15"><tspan>AL : 4.2 %</tspan></text></g><g  style="cursor:pointer;" transform="translate(377,22)"><text x="5"  style="font-size:10px;font-weight:bold;font-family:'arial', sans-serif;color:#000000;text-shadow:0 0 6px #ffffff, 0 0 3px #ffffff;fill:#000000;text-rendering:geometricprecision;" y="15"><tspan>BA : 4.2 %</tspan></text></g><g  style="cursor:pointer;" transform="translate(425,67)"><text x="5"  style="font-size:10px;font-weight:bold;font-family:'arial', sans-serif;color:#000000;text-shadow:0 0 6px #ffffff, 0 0 3px #ffffff;fill:#000000;text-rendering:geometricprecision;" y="15"><tspan>CE : 14 %</tspan></text></g><g  style="cursor:pointer;" transform="translate(451,148)"><text x="5"  style="font-size:10px;font-weight:bold;font-family:'arial', sans-serif;color:#000000;text-shadow:0 0 6px #ffffff, 0 0 3px #ffffff;fill:#000000;text-rendering:geometricprecision;" y="15"><tspan>DF : 4.2 %</tspan></text></g><g  style="cursor:pointer;" transform="translate(450,175)"><text x="5"  style="font-size:10px;font-weight:bold;font-family:'arial', sans-serif;color:#000000;text-shadow:0 0 6px #ffffff, 0 0 3px #ffffff;fill:#000000;text-rendering:geometricprecision;" y="15"><tspan>MT : 1.4 %</tspan></text></g><g  style="cursor:pointer;" transform="translate(443,201)"><text x="5"  style="font-size:10px;font-weight:bold;font-family:'arial', sans-serif;color:#000000;text-shadow:0 0 6px #ffffff, 0 0 3px #ffffff;fill:#000000;text-rendering:geometricprecision;" y="15"><tspan>PA : 4.2 %</tspan></text></g><g  style="cursor:pointer;" transform="translate(307,304)"><text x="5"  style="font-size:10px;font-weight:bold;font-family:'arial', sans-serif;color:#000000;text-shadow:0 0 6px #ffffff, 0 0 3px #ffffff;fill:#000000;text-rendering:geometricprecision;" y="15"><tspan>PE : 33.8 %</tspan></text></g><g  style="cursor:pointer;" transform="translate(97,232)"><text x="5"  style="font-size:10px;font-weight:bold;font-family:'arial', sans-serif;color:#000000;text-shadow:0 0 6px #ffffff, 0 0 3px #ffffff;fill:#000000;text-rendering:geometricprecision;" y="15"><tspan>PI : 1.4 %</tspan></text></g><g  style="cursor:pointer;" transform="translate(81,208)"><text x="5"  style="font-size:10px;font-weight:bold;font-family:'arial', sans-serif;color:#000000;text-shadow:0 0 6px #ffffff, 0 0 3px #ffffff;fill:#000000;text-rendering:geometricprecision;" y="15"><tspan>PR : 2.8 %</tspan></text></g><g  style="cursor:pointer;" transform="translate(71,155)"><text x="5"  style="font-size:10px;font-weight:bold;font-family:'arial', sans-serif;color:#000000;text-shadow:0 0 6px #ffffff, 0 0 3px #ffffff;fill:#000000;text-rendering:geometricprecision;" y="15"><tspan>RJ : 8.4 %</tspan></text></g><g  style="cursor:pointer;" transform="translate(83,90)"><text x="5"  style="font-size:10px;font-weight:bold;font-family:'arial', sans-serif;color:#000000;text-shadow:0 0 6px #ffffff, 0 0 3px #ffffff;fill:#000000;text-rendering:geometricprecision;" y="15"><tspan>RN : 5.6 %</tspan></text></g><g  style="cursor:pointer;" transform="translate(146,19)"><text x="5"  style="font-size:10px;font-weight:bold;font-family:'arial', sans-serif;color:#000000;text-shadow:0 0 6px #ffffff, 0 0 3px #ffffff;fill:#000000;text-rendering:geometricprecision;" y="15"><tspan>SP : 15.4 %</tspan></text></g></g><g class="highcharts-legend"  transform="translate(20,346)"><g ><g><g class="highcharts-legend-item"  transform="translate(8,3)"><text x="21" style="color:#333;font-size:9pt;font-weight:normal;cursor:pointer;font-family:'lucida grande','lucida sans unicode',arial,helvetica,sans-serif;text-transform:none;fill:#333;" text-anchor="start"  y="15">AL</text><rect x="0" y="4" width="16" height="12"  fill="#50B432"></rect></g><g class="highcharts-legend-item"  transform="translate(63.671875,3)"><text x="21" y="15" style="color:#333;font-size:9pt;font-weight:normal;cursor:pointer;font-family:'lucida grande','lucida sans unicode',arial,helvetica,sans-serif;text-transform:none;fill:#333;" text-anchor="start" >BA</text><rect x="0" y="4" width="16" height="12"  fill="#ED561B"></rect></g><g class="highcharts-legend-item"  transform="translate(120.671875,3)"><text x="21" y="15" style="color:#333;font-size:9pt;font-weight:normal;cursor:pointer;font-family:'lucida grande','lucida sans unicode',arial,helvetica,sans-serif;text-transform:none;fill:#333;" text-anchor="start" >CE</text><rect x="0" y="4" width="16" height="12"  fill="#DDDF00"></rect></g><g class="highcharts-legend-item"  transform="translate(178.328125,3)"><text x="21" y="15" style="color:#333;font-size:9pt;font-weight:normal;cursor:pointer;font-family:'lucida grande','lucida sans unicode',arial,helvetica,sans-serif;text-transform:none;fill:#333;" text-anchor="start" >DF</text><rect x="0" y="4" width="16" height="12"  fill="#24CBE5"></rect></g><g class="highcharts-legend-item"  transform="translate(235.3125,3)"><text x="21" y="15" style="color:#333;font-size:9pt;font-weight:normal;cursor:pointer;font-family:'lucida grande','lucida sans unicode',arial,helvetica,sans-serif;text-transform:none;fill:#333;" text-anchor="start" >MT</text><rect x="0" y="4" width="16" height="12"  fill="#64E572"></rect></g><g class="highcharts-legend-item"  transform="translate(293.625,3)"><text x="21" y="15" style="color:#333;font-size:9pt;font-weight:normal;cursor:pointer;font-family:'lucida grande','lucida sans unicode',arial,helvetica,sans-serif;text-transform:none;fill:#333;" text-anchor="start" >PA</text><rect x="0" y="4" width="16" height="12"  fill="#FF9655"></rect></g><g class="highcharts-legend-item"  transform="translate(349.734375,3)"><text x="21" y="15" style="color:#333;font-size:9pt;font-weight:normal;cursor:pointer;font-family:'lucida grande','lucida sans unicode',arial,helvetica,sans-serif;text-transform:none;fill:#333;" text-anchor="start" >PE</text><rect x="0" y="4" width="16" height="12"  fill="#FFF263"></rect></g><g class="highcharts-legend-item"  transform="translate(406.734375,3)"><text x="21" y="15" style="color:#333;font-size:9pt;font-weight:normal;cursor:pointer;font-family:'lucida grande','lucida sans unicode',arial,helvetica,sans-serif;text-transform:none;fill:#333;" text-anchor="start" >PI</text><rect x="0" y="4" width="16" height="12"  fill="#6AF9C4"></rect></g><g class="highcharts-legend-item"  transform="translate(459.0625,3)"><text x="21" y="15" style="color:#333;font-size:9pt;font-weight:normal;cursor:pointer;font-family:'lucida grande','lucida sans unicode',arial,helvetica,sans-serif;text-transform:none;fill:#333;" text-anchor="start" >PR</text><rect x="0" y="4" width="16" height="12"  fill="#2F7ED8"></rect></g><g class="highcharts-legend-item"  transform="translate(516.71875,3)"><text x="21" y="15" style="color:#333;font-size:9pt;font-weight:normal;cursor:pointer;font-family:'lucida grande','lucida sans unicode',arial,helvetica,sans-serif;text-transform:none;fill:#333;" text-anchor="start" >RJ</text><rect x="0" y="4" width="16" height="12"  fill="#0D233A"></rect></g><g class="highcharts-legend-item"  transform="translate(8,17)"><text x="21" y="15" style="color:#333;font-size:9pt;font-weight:normal;cursor:pointer;font-family:'lucida grande','lucida sans unicode',arial,helvetica,sans-serif;text-transform:none;fill:#333;" text-anchor="start" >RN</text><rect x="0" y="4" width="16" height="12"  fill="#8BBC21"></rect></g><g class="highcharts-legend-item"  transform="translate(66.328125,17)"><text x="21" y="15" style="color:#333;font-size:9pt;font-weight:normal;cursor:pointer;font-family:'lucida grande','lucida sans unicode',arial,helvetica,sans-serif;text-transform:none;fill:#333;" text-anchor="start" >SP</text><rect x="0" y="4" width="16" height="12"  fill="#910000"></rect></g></g></g></g><g class="highcharts-tooltip"  style="cursor:default;padding:0;pointer-events:none;white-space:nowrap;" transform="translate(0,-9999)"><path fill="none" d="M 3.5 0.5 L 13.5 0.5 C 16.5 0.5 16.5 0.5 16.5 3.5 L 16.5 13.5 C 16.5 16.5 16.5 16.5 13.5 16.5 L 3.5 16.5 C 0.5 16.5 0.5 16.5 0.5 13.5 L 0.5 3.5 C 0.5 0.5 0.5 0.5 3.5 0.5"  stroke="black" stroke-opacity="0.049999999999999996" stroke-width="5" transform="translate(1, 1)"></path><path fill="none" d="M 3.5 0.5 L 13.5 0.5 C 16.5 0.5 16.5 0.5 16.5 3.5 L 16.5 13.5 C 16.5 16.5 16.5 16.5 13.5 16.5 L 3.5 16.5 C 0.5 16.5 0.5 16.5 0.5 13.5 L 0.5 3.5 C 0.5 0.5 0.5 0.5 3.5 0.5"  stroke="black" stroke-opacity="0.09999999999999999" stroke-width="3" transform="translate(1, 1)"></path><path fill="none" d="M 3.5 0.5 L 13.5 0.5 C 16.5 0.5 16.5 0.5 16.5 3.5 L 16.5 13.5 C 16.5 16.5 16.5 16.5 13.5 16.5 L 3.5 16.5 C 0.5 16.5 0.5 16.5 0.5 13.5 L 0.5 3.5 C 0.5 0.5 0.5 0.5 3.5 0.5"  stroke="black" stroke-opacity="0.15" stroke-width="1" transform="translate(1, 1)"></path><path fill="rgb(249, 249, 249)" fill-opacity=" .85" d="M 3.5 0.5 L 13.5 0.5 C 16.5 0.5 16.5 0.5 16.5 3.5 L 16.5 13.5 C 16.5 16.5 16.5 16.5 13.5 16.5 L 3.5 16.5 C 0.5 16.5 0.5 16.5 0.5 13.5 L 0.5 3.5 C 0.5 0.5 0.5 0.5 3.5 0.5"></path><text x="8"  style="font-size:12px;color:#000000;fill:#000000;" y="20"></text></g><text x="590" text-anchor="end"  style="cursor:pointer;color:#909090;font-size:9px;fill:#909090;" y="395">meta-chart.com</text></svg>