<?xml version="1.0" encoding="utf-8"?>
<!-- Generator: Adobe Illustrator 20.1.0, SVG Export Plug-In . SVG Version: 6.00 Build 0)  -->
<svg version="1.1" id="Layer_1" xmlns="http://www.w3.org/2000/svg" xmlns:xlink="http://www.w3.org/1999/xlink" x="0px" y="0px"
	 viewBox="0 0 110.619 94" style="enable-background:new 0 0 110.619 94;" xml:space="preserve">
<style type="text/css">
	.st0{fill:#6D6D6D;}
	.st1{fill:#DEDEDE;stroke:#DEDEDE;stroke-miterlimit:10;}
	.st2{fill:#74CCD1;}
	.st3{fill:#3C8E92;}
	.st4{fill:#1D4346;}
	.st5{opacity:0.42;fill:#5D5D5D;}
	.st6{fill:#87BA27;}
	.st7{fill:#5D5D5D;}
	.st8{fill:none;stroke:#FFA543;stroke-miterlimit:10;}
	.st9{fill:#FFA543;}
	.st10{fill:#FFFFFF;}
	.st11{fill:#C6C6C6;}
	.st12{fill:#CCCCCC;}
	.st13{fill:#FFFFFF;stroke:#87BA27;stroke-miterlimit:10;}
	.st14{fill:#FFFFFF;stroke:#FFFFFF;stroke-miterlimit:10;}
	.st15{fill:#AFAFAF;}
	.st16{display:none;fill:#3D3A38;}
	.st17{fill:#3D3A38;}
	.st18{fill:#777777;}
	.st19{fill:#98C92D;}
	.st20{fill:#FFFDFD;}
	.st21{fill:#1FE5FF;}
	.st22{fill:#7F7F7F;}
	.st23{fill:#34E5D7;}
	.st24{fill:#FFC33E;}
	.st25{fill:#ED5259;}
	.st26{fill:none;stroke:#FF931E;stroke-miterlimit:10;}
	.st27{fill:#6C951F;}
	.st28{fill:#CFCFCF;}
	.st29{fill:#1E3B50;}
	.st30{fill:#00918A;}
	.st31{fill:#006682;}
	.st32{fill:#05CCAA;}
	.st33{fill:#8AE295;}
	.st34{fill:#CFF487;}
	.st35{fill-rule:evenodd;clip-rule:evenodd;fill:#FFFFFF;}
	.st36{fill-rule:evenodd;clip-rule:evenodd;fill:#3D3A38;}
	.st37{fill:#51BFC5;}
	.st38{opacity:0.81;}
	.st39{fill:#9E9E9E;}
	.st40{fill:#707070;}
	.st41{fill:#3E4095;}
	.st42{fill:#FEFEFE;}
	.st43{fill:#00AEEE;}
	.st44{fill:#F2F2F2;}
	.st45{fill:#E4E4E4;}
	.st46{fill:#7A7A7A;}
	.st47{fill:#8E8E8E;}
	.st48{fill:#C0C0C0;}
	.st49{fill:#A0A0A0;}
	.st50{fill:#DFDFDF;}
	.st51{fill:#DCDCDC;}
	.st52{fill:#BDBDBD;}
	.st53{fill:#D0D0D0;}
	.st54{fill:#D5D5D5;}
	.st55{fill:#FFFFFF;stroke:#FFFFFF;stroke-width:4;stroke-linecap:round;stroke-linejoin:round;stroke-miterlimit:10;}
	.st56{fill:none;stroke:#FFFFFF;stroke-width:4;stroke-linecap:round;stroke-linejoin:round;stroke-miterlimit:10;}
	.st57{fill:#4AAFAF;}
	.st58{opacity:0.74;}
	.st59{fill:#CBCBCB;}
	.st60{opacity:0.12;fill:#DEDEDE;}
	.st61{opacity:0.12;}
	.st62{fill:#DEDEDE;}
	.st63{fill:none;stroke:#51BFC5;stroke-width:2;stroke-miterlimit:10;}
	.st64{fill:none;stroke:#51BFC5;stroke-width:3;stroke-linecap:round;stroke-linejoin:round;stroke-miterlimit:10;}
	.st65{opacity:0.6;fill:#00FFFF;}
	.st66{fill:none;stroke:#4AAFAF;stroke-width:5;stroke-linecap:round;stroke-linejoin:round;stroke-miterlimit:10;}
	.st67{fill:none;stroke:#FFFFFF;stroke-miterlimit:10;}
	.st68{fill:none;stroke:#7A828C;stroke-miterlimit:10;}
	.st69{opacity:0.52;}
	.st70{fill:#778E90;}
	.st71{fill:#1E4749;}
	.st72{fill:#F7F7F7;}
	.st73{fill:#142E30;}
	.st74{fill:#2E6C6F;}
	.st75{fill:#3A5152;}
	.st76{fill:#C9C9C9;stroke:#DEDEDE;stroke-miterlimit:10;}
	.st77{opacity:0.35;fill:#DEDEDE;}
	.st78{opacity:0.35;}
	.st79{fill:none;stroke:#FFFFFF;stroke-width:12;stroke-linecap:round;stroke-linejoin:round;stroke-miterlimit:10;}
	.st80{opacity:0.2;fill:#51BFC5;}
	.st81{fill:#3A3A3A;}
	.st82{fill:#257478;}
	.st83{fill:#1C575A;}
	.st84{fill:#3D8F94;}
	.st85{fill:#AAAAAA;}
	.st86{fill:none;stroke:#FFFFFF;stroke-width:4;stroke-miterlimit:10;}
	.st87{fill:#FFFFFF;stroke:#FFFFFF;stroke-width:2;stroke-linecap:square;stroke-linejoin:round;stroke-miterlimit:10;}
	.st88{font-family:'MyriadPro-Regular';}
	.st89{font-size:34.6627px;}
</style>
<g id="XMLID_70_">
</g>
<g>
	<g>
		<g>
			<path class="st0" d="M89.381,43.454c5.082,0,9.202,4.12,9.202,9.202s-4.12,9.202-9.202,9.202"/>
		</g>
		<g>
			<path class="st0" d="M11.202,43.454C6.12,43.454,2,47.574,2,52.656s4.12,9.202,9.202,9.202"/>
		</g>
		<g>
			<path class="st0" d="M50.547,92L50.547,92c-21.999,0-39.833-17.834-39.833-39.833V42c0-21.907,17.759-39.667,39.667-39.667h0.333
				c21.907,0,39.667,17.759,39.667,39.667v10.167C90.381,74.166,72.547,92,50.547,92z"/>
		</g>
		<g>
			<path class="st10" d="M89.381,63.858v-4c3.971,0,7.202-3.231,7.202-7.202s-3.23-7.202-7.202-7.202v-4
				c6.177,0,11.202,5.025,11.202,11.202S95.558,63.858,89.381,63.858z"/>
		</g>
		<g>
			<path class="st10" d="M11.202,63.858C5.025,63.858,0,58.833,0,52.656s5.025-11.202,11.202-11.202v4
				C7.23,45.454,4,48.685,4,52.656s3.23,7.202,7.202,7.202V63.858z"/>
		</g>
		<path class="st10" d="M50.602,0H50.42C27.441,0,8.641,18.801,8.641,41.779v9.404c0,24.293,19.885,43.995,44.147,42.763
			c22.083-1.121,39.853-19.432,39.853-41.779V42.039C92.641,18.918,73.723,0,50.602,0z M88.641,52.167
			c0,21.237-17.762,38.443-39.131,37.817C28.842,89.377,12.641,71.917,12.641,51.24l0-9.24c0-16.94,11.271-31.297,26.692-36.016
			c0.697-0.213,1.682-0.446,2.639-0.654c2.67-0.579,5.495-0.333,7.923,0.919c1.932,0.996,3.448,2.45,4.045,4.521
			c1.662,5.766-1.487,9.939-4.501,11.525c-3.013,1.586-5.372-1.297-6.242,0c-1.865,2.78,3.959,6.027,13.37,2.696
			c5.304-1.877,9.504-6.875,11.585-11.68c0.888-2.049,3.459-2.787,5.248-1.45C82.593,18.736,88.641,29.683,88.641,42V52.167z"/>
	</g>
	<path class="st10" d="M58.575,76.248c2.484-4.363,8.055-5.891,12.418-3.406c0.799,0.455,1.815,0.176,2.271-0.623
		c0.455-0.799,0.176-1.816-0.623-2.271c-2.979-1.696-6.371-2.023-9.442-1.181c-3.071,0.842-5.821,2.854-7.518,5.833
		c-0.455,0.799-0.176,1.816,0.623,2.271C57.104,77.326,58.12,77.047,58.575,76.248z"/>
	<path class="st10" d="M22.187,38.592c1.689-2.965,5.475-4.004,8.44-2.315c0.543,0.309,1.234,0.12,1.543-0.423
		c0.309-0.543,0.12-1.234-0.423-1.543c-2.025-1.153-4.33-1.375-6.417-0.802s-3.957,1.94-5.11,3.965
		c-0.309,0.543-0.12,1.234,0.423,1.543C21.187,39.325,21.878,39.135,22.187,38.592z"/>
	<path class="st10" d="M69.367,43.908c2.742-2.031,6.626-1.452,8.657,1.29c0.372,0.502,1.08,0.608,1.583,0.236
		c0.502-0.372,0.608-1.081,0.236-1.583c-1.387-1.873-3.406-3.007-5.547-3.326c-2.141-0.319-4.403,0.177-6.276,1.563
		c-0.502,0.372-0.608,1.081-0.236,1.583C68.156,44.174,68.865,44.28,69.367,43.908z"/>
	<g>
		<ellipse class="st10" cx="28.175" cy="55.827" rx="4.144" ry="5.246"/>
		<ellipse class="st10" cx="71.706" cy="55.827" rx="4.144" ry="5.246"/>
	</g>
	<g>
		<text transform="matrix(1 0 0 1 95.5464 33.2045)" class="st87 st88 st89">?</text>
	</g>
</g>
</svg>
